<svg width="387" height="107" viewBox="0 0 387 107" fill="none" xmlns="http://www.w3.org/2000/svg">
<path d="M63.76 4.09996C62.86 3.86996 61.98 4.53997 61.98 5.46997V16.36C61.98 16.97 62.36 17.51 62.94 17.7C77.81 22.71 88.54 36.7999 88.54 53.34C88.54 69.88 77.34 84.57 61.98 89.28C61.1 89.57 60.2 89.81 59.28 90.02C58.39 90.22 57.55 89.55 57.55 88.64V21.98C57.55 21.29 57.05 20.7 56.37 20.58C54.6 20.28 52.78 20.14 50.91 20.14C49.04 20.14 47.23 20.29 45.45 20.58C44.77 20.69 44.27 21.29 44.27 21.98V105.04C44.27 105.82 44.91 106.46 45.69 106.46H56.14C56.92 106.46 57.56 105.83 57.56 105.04C57.56 104.34 58.07 103.74 58.77 103.64C59.85 103.48 60.92 103.26 61.99 103.01C84.76 97.96 101.83 77.6 101.83 53.34C101.83 29.08 85.65 9.78996 63.77 4.09996" fill="#071C3C"/>
<path d="M39.85 17.4C41.29 16.94 42.77 16.58 44.28 16.34C46.43 15.92 48.66 15.72 50.92 15.72C52.61 15.72 54.3 15.83 55.94 16.07C56.8 16.19 57.56 15.53 57.56 14.67V1.64998C57.56 0.869979 56.93 0.22998 56.14 0.22998H45.69C44.91 0.22998 44.27 0.869979 44.27 1.64998C44.27 2.34998 43.76 2.94999 43.06 3.04999C41.98 3.20999 40.91 3.42998 39.84 3.67998C17.06 8.72998 0 29.09 0 53.35C0 77.61 16.18 96.9 38.06 102.59C38.96 102.82 39.84 102.15 39.84 101.22V90.33C39.84 89.72 39.45 89.18 38.88 88.99C24.01 83.98 13.28 69.89 13.28 53.35C13.28 36.81 24.48 22.12 39.84 17.4" fill="#071C3C"/>
<path d="M28.61 54.8C28.61 41.87 39.09 31.38 52.03 31.38C64.97 31.38 75.45 41.86 75.45 54.8C75.45 67.74 64.97 78.22 52.03 78.22C39.09 78.22 28.61 67.74 28.61 54.8Z" fill="#071C3C"/>
<path d="M52.03 70.29C43.49 70.29 36.54 63.34 36.54 54.8C36.54 46.26 43.49 39.31 52.03 39.31C60.57 39.31 67.52 46.26 67.52 54.8C67.52 63.34 60.57 70.29 52.03 70.29Z" fill="white"/>
<path d="M45.33 65.26C45.33 67.34 43.6401 69.02 41.5701 69.02C39.5001 69.02 37.8101 67.34 37.8101 65.26C37.8101 63.18 39.4901 61.5 41.5701 61.5C43.6501 61.5 45.33 63.18 45.33 65.26Z" fill="#071C3C"/>
<path d="M55.6001 45.02C55.6001 48.46 58.3901 51.25 61.8301 51.25C65.2701 51.25 68.0601 48.46 68.0601 45.02C68.0601 41.58 65.2701 38.79 61.8301 38.79C58.3901 38.79 55.6001 41.58 55.6001 45.02Z" fill="white"/>
<path d="M66.4101 38.78L55.6001 39.33V38.78H66.4101Z" fill="#071C3C"/>
<path d="M68.0601 39.52L55.6001 40.15V39.33L66.4101 38.78H68.0601V39.52Z" fill="#071C3C"/>
<path d="M68.0601 40.35L55.6001 40.98V40.15L68.0601 39.52V40.35Z" fill="#071C3C"/>
<path d="M68.0601 41.17L55.6001 41.8V40.98L68.0601 40.35V41.17Z" fill="#071C3C"/>
<path d="M68.0601 41.99L55.6001 42.62V41.8L68.0601 41.17V41.99Z" fill="#071C3C"/>
<path d="M68.0601 42.82L55.6001 43.45V42.62L68.0601 41.99V42.82Z" fill="#071C3C"/>
<path d="M68.0601 43.64L55.6001 44.2699V43.45L68.0601 42.8199V43.64Z" fill="#071C3C"/>
<path d="M68.0601 44.46L55.6001 45.09V44.27L68.0601 43.64V44.46Z" fill="#071C3C"/>
<path d="M68.0601 45.29L55.6001 45.91V45.09L68.0601 44.46V45.29Z" fill="#071C3C"/>
<path d="M68.0601 46.11L55.6001 46.74V45.91L68.0601 45.29V46.11Z" fill="#071C3C"/>
<path d="M68.0601 46.93L55.6001 47.56V46.74L68.0601 46.11V46.93Z" fill="#071C3C"/>
<path d="M68.0601 47.76L55.6001 48.38V47.56L68.0601 46.93V47.76Z" fill="#071C3C"/>
<path d="M68.0601 48.58L55.6001 49.21V48.38L68.0601 47.76V48.58Z" fill="#071C3C"/>
<path d="M68.0601 49.4L55.6001 50.0299V49.21L68.0601 48.58V49.4Z" fill="#071C3C"/>
<path d="M68.0601 50.22L55.6001 50.85V50.03L68.0601 49.4V50.22Z" fill="#071C3C"/>
<path d="M68.0601 51.05L64.0601 51.25H55.6001V50.85L68.0601 50.23V51.05Z" fill="#071C3C"/>
<path d="M64.0601 51.25L68.0601 51.05V51.25H64.0601Z" fill="#071C3C"/>
<path d="M118 53.36V53.25C118 42.2 126.91 33.23 138.79 33.23C150.67 33.23 159.47 42.08 159.47 53.14V53.25C159.47 64.3 150.56 73.27 138.68 73.27C126.8 73.27 118 64.42 118 53.36ZM148.58 53.36V53.25C148.58 47.7 144.56 42.86 138.68 42.86C132.8 42.86 128.95 47.59 128.95 53.14V53.25C128.95 58.8 132.97 63.64 138.79 63.64C144.61 63.64 148.58 58.91 148.58 53.36Z" fill="#071C3C"/>
<path d="M162.61 53.36V53.25C162.61 42.03 171.24 33.23 182.9 33.23C190.76 33.23 195.82 36.53 199.23 41.26L191.2 47.47C189 44.72 186.47 42.96 182.79 42.96C177.4 42.96 173.61 47.52 173.61 53.13V53.24C173.61 59.01 177.41 63.52 182.79 63.52C186.8 63.52 189.17 61.65 191.48 58.85L199.51 64.57C195.88 69.57 190.99 73.26 182.46 73.26C171.46 73.26 162.61 64.85 162.61 53.35" fill="#071C3C"/>
<path d="M202.48 55.61V34H213.31V55.39C213.31 60.94 216.11 63.58 220.4 63.58C224.69 63.58 227.49 61.05 227.49 55.66V33.99H238.32V55.33C238.32 67.76 231.23 73.2 220.28 73.2C209.33 73.2 202.46 67.65 202.46 55.6" fill="#071C3C"/>
<path d="M245.88 34H258.42C270.52 34 278.88 42.36 278.88 53.19V53.3C278.88 64.13 270.52 72.49 258.42 72.49H245.88V34ZM258.47 70.79C269.52 70.79 276.95 63.09 276.95 53.36V53.25C276.95 43.52 269.53 35.71 258.42 35.71H247.75V70.79H258.47Z" fill="#071C3C"/>
<path d="M287.51 34H314.62V35.71H289.38V52.26H312.2V53.97H289.38V70.79H314.9V72.5H287.51V34Z" fill="#071C3C"/>
<path d="M322.99 34H350.1V35.71H324.86V52.26H347.68V53.97H324.86V70.79H350.37V72.5H322.99V34Z" fill="#071C3C"/>
<path d="M358.41 34H372.16C381.18 34 386.73 38.34 386.73 45.66V45.77C386.73 53.47 380.52 57.7 371.72 57.7H360.28V72.49H358.41V34ZM371.77 55.94C379.74 55.94 384.86 52.2 384.86 45.82V45.71C384.86 39.39 379.91 35.7 371.99 35.7H360.28V55.94H371.77Z" fill="#071C3C"/>
</svg>
