<svg width="387" height="107" viewBox="0 0 387 107" fill="none" xmlns="http://www.w3.org/2000/svg">
<path d="M118 53.13V53.02C118 41.97 126.91 33 138.79 33C150.67 33 159.47 41.85 159.47 52.91V53.02C159.47 64.07 150.56 73.04 138.68 73.04C126.8 73.04 118 64.19 118 53.13ZM148.58 53.13V53.02C148.58 47.47 144.56 42.63 138.68 42.63C132.8 42.63 128.95 47.36 128.95 52.91V53.02C128.95 58.57 132.97 63.41 138.79 63.41C144.61 63.41 148.58 58.68 148.58 53.13Z" fill="#046D7A"/>
<path d="M162.61 53.13V53.02C162.61 41.8 171.24 33 182.9 33C190.76 33 195.82 36.3 199.23 41.03L191.2 47.24C189 44.49 186.47 42.73 182.79 42.73C177.4 42.73 173.61 47.29 173.61 52.9V53.01C173.61 58.78 177.41 63.29 182.79 63.29C186.8 63.29 189.17 61.42 191.48 58.62L199.51 64.34C195.88 69.34 190.99 73.03 182.46 73.03C171.46 73.03 162.61 64.62 162.61 53.12" fill="#046D7A"/>
<path d="M202.48 55.38V33.77H213.31V55.16C213.31 60.71 216.11 63.35 220.4 63.35C224.69 63.35 227.49 60.82 227.49 55.43V33.76H238.32V55.1C238.32 67.53 231.23 72.97 220.28 72.97C209.33 72.97 202.46 67.42 202.46 55.37" fill="#046D7A"/>
<path d="M245.88 33.77H258.42C270.52 33.77 278.88 42.13 278.88 52.96V53.07C278.88 63.9 270.52 72.26 258.42 72.26H245.88V33.77ZM258.47 70.56C269.52 70.56 276.95 62.86 276.95 53.13V53.02C276.95 43.29 269.53 35.48 258.42 35.48H247.75V70.56H258.47Z" fill="#046D7A"/>
<path d="M287.51 33.77H314.62V35.48H289.38V52.03H312.2V53.74H289.38V70.56H314.9V72.27H287.51V33.77Z" fill="#046D7A"/>
<path d="M322.99 33.77H350.1V35.48H324.86V52.03H347.68V53.74H324.86V70.56H350.37V72.27H322.99V33.77Z" fill="#046D7A"/>
<path d="M358.41 33.77H372.16C381.18 33.77 386.73 38.11 386.73 45.43V45.54C386.73 53.24 380.52 57.47 371.72 57.47H360.28V72.26H358.41V33.77ZM371.77 55.71C379.74 55.71 384.86 51.97 384.86 45.59V45.48C384.86 39.16 379.91 35.47 371.99 35.47H360.28V55.71H371.77Z" fill="#046D7A"/>
<path d="M63.76 3.86998C62.86 3.63998 61.98 4.30999 61.98 5.23999V16.13C61.98 16.74 62.36 17.28 62.94 17.47C77.81 22.48 88.54 36.57 88.54 53.11C88.54 69.65 77.34 84.34 61.98 89.05C61.1 89.34 60.2 89.58 59.28 89.79C58.39 89.99 57.55 89.32 57.55 88.41V21.75C57.55 21.06 57.05 20.47 56.37 20.35C54.6 20.05 52.78 19.91 50.91 19.91C49.04 19.91 47.23 20.06 45.45 20.35C44.77 20.46 44.27 21.06 44.27 21.75V104.81C44.27 105.59 44.91 106.23 45.69 106.23H56.14C56.92 106.23 57.56 105.6 57.56 104.81C57.56 104.11 58.07 103.51 58.77 103.41C59.85 103.25 60.92 103.03 61.99 102.78C84.76 97.73 101.83 77.37 101.83 53.11C101.83 28.85 85.65 9.55998 63.77 3.86998" fill="#07B3C8"/>
<path d="M39.85 17.17C41.29 16.71 42.77 16.35 44.28 16.11C46.43 15.69 48.66 15.49 50.92 15.49C52.61 15.49 54.3 15.6 55.94 15.84C56.8 15.96 57.56 15.3 57.56 14.44V1.42C57.56 0.639998 56.93 0 56.14 0H45.69C44.91 0 44.27 0.639998 44.27 1.42C44.27 2.12 43.76 2.72001 43.06 2.82001C41.98 2.98001 40.91 3.2 39.84 3.45C17.06 8.5 0 28.86 0 53.12C0 77.38 16.18 96.67 38.06 102.36C38.96 102.59 39.84 101.92 39.84 100.99V90.1C39.84 89.49 39.45 88.95 38.88 88.76C24.01 83.75 13.28 69.66 13.28 53.12C13.28 36.58 24.48 21.89 39.84 17.17" fill="#07B3C8"/>
<path d="M28.61 54.57C28.61 41.64 39.09 31.15 52.03 31.15C64.97 31.15 75.45 41.63 75.45 54.57C75.45 67.51 64.97 77.99 52.03 77.99C39.09 77.99 28.61 67.51 28.61 54.57Z" fill="#07B3C8"/>
<path d="M52.03 70.06C43.49 70.06 36.54 63.11 36.54 54.57C36.54 46.03 43.49 39.08 52.03 39.08C60.57 39.08 67.52 46.03 67.52 54.57C67.52 63.11 60.57 70.06 52.03 70.06Z" fill="#231F20"/>
<path d="M45.33 65.03C45.33 67.11 43.6401 68.79 41.5701 68.79C39.5001 68.79 37.8101 67.11 37.8101 65.03C37.8101 62.95 39.4901 61.27 41.5701 61.27C43.6501 61.27 45.33 62.95 45.33 65.03Z" fill="white"/>
<path d="M55.6001 44.79C55.6001 48.23 58.3901 51.02 61.8301 51.02C65.2701 51.02 68.0601 48.23 68.0601 44.79C68.0601 41.35 65.2701 38.56 61.8301 38.56C58.3901 38.56 55.6001 41.35 55.6001 44.79Z" fill="black"/>
<path d="M66.4101 38.55L55.6001 39.1V38.55H66.4101Z" fill="#6DBD90"/>
<path d="M68.0601 39.29L55.6001 39.92V39.1L66.4101 38.55H68.0601V39.29Z" fill="#6DBC90"/>
<path d="M68.0601 40.12L55.6001 40.75V39.92L68.0601 39.29V40.12Z" fill="#6CBB90"/>
<path d="M68.0601 40.94L55.6001 41.57V40.75L68.0601 40.12V40.94Z" fill="#6CBA91"/>
<path d="M68.0601 41.76L55.6001 42.39V41.57L68.0601 40.94V41.76Z" fill="#6BB991"/>
<path d="M68.0601 42.59L55.6001 43.22V42.39L68.0601 41.76V42.59Z" fill="#6BB891"/>
<path d="M68.0601 43.41L55.6001 44.04V43.22L68.0601 42.59V43.41Z" fill="#6AB791"/>
<path d="M68.0601 44.23L55.6001 44.86V44.04L68.0601 43.41V44.23Z" fill="#6AB692"/>
<path d="M68.0601 45.06L55.6001 45.68V44.86L68.0601 44.23V45.06Z" fill="#69B592"/>
<path d="M68.0601 45.88L55.6001 46.51V45.68L68.0601 45.06V45.88Z" fill="#69B492"/>
<path d="M68.0601 46.7L55.6001 47.33V46.51L68.0601 45.88V46.7Z" fill="#68B392"/>
<path d="M68.0601 47.53L55.6001 48.15V47.33L68.0601 46.7V47.53Z" fill="#68B293"/>
<path d="M68.0601 48.35L55.6001 48.98V48.15L68.0601 47.53V48.35Z" fill="#67B193"/>
<path d="M68.0601 49.17L55.6001 49.8V48.98L68.0601 48.35V49.17Z" fill="#67B093"/>
<path d="M68.0601 49.99L55.6001 50.62V49.8L68.0601 49.17V49.99Z" fill="#66AF94"/>
<path d="M68.0601 50.82L64.0601 51.02H55.6001V50.62L68.0601 50V50.82Z" fill="#66AE94"/>
<path d="M64.0601 51.02L68.0601 50.82V51.02H64.0601Z" fill="#65AD94"/>
</svg>
